<svg xmlns="http://www.w3.org/2000/svg" xmlns:svg="http://www.w3.org/2000/svg" xmlns:xlink="http://www.w3.org/1999/xlink" id="svg2" width="100%" height="100%" version="1.0" viewBox="0 0 290 290"><title id="title110">channel_linked</title><defs id="defs4"><linearGradient id="linearGradient3787"><stop id="stop3789" offset="0" style="stop-color:#000;stop-opacity:1"/><stop id="stop3792" offset="1" style="stop-color:#000;stop-opacity:0"/></linearGradient><linearGradient id="linearGradient3739"><stop id="stop3741" offset="0" style="stop-color:#1a1a1a;stop-opacity:1"/><stop id="stop3743" offset="1" style="stop-color:#313131;stop-opacity:0"/></linearGradient><linearGradient id="linearGradient4001"><stop id="stop4003" offset="0" style="stop-color:#666;stop-opacity:1"/><stop id="stop4005" offset="1" style="stop-color:#666;stop-opacity:0"/></linearGradient><linearGradient id="linearGradient3971"><stop id="stop3973" offset="0" style="stop-color:#666;stop-opacity:1"/><stop id="stop3975" offset="1" style="stop-color:#666;stop-opacity:0"/></linearGradient><linearGradient id="linearGradient1094"><stop id="stop1096" offset="0" style="stop-color:#999;stop-opacity:1"/><stop id="stop1098" offset="1" style="stop-color:#999;stop-opacity:0"/></linearGradient><linearGradient id="linearGradient839"><stop id="stop841" offset="0" style="stop-color:#000;stop-opacity:1"/><stop id="stop857" offset=".5" style="stop-color:#404040;stop-opacity:.74901962"/><stop id="stop849" offset="1" style="stop-color:gray;stop-opacity:.49803922"/></linearGradient><radialGradient id="radialGradient845-1" cx="146.429" cy="216.786" r="74.286" fx="146.429" fy="216.786" gradientTransform="matrix(1,0,0,0.48687444,0,58.738289)" gradientUnits="userSpaceOnUse" xlink:href="#linearGradient839-7"/><linearGradient id="linearGradient839-7"><stop id="stop841-4" offset="0" style="stop-color:#000;stop-opacity:1"/><stop id="stop857-0" offset=".5" style="stop-color:#404040;stop-opacity:.74901962"/><stop id="stop849-9" offset="1" style="stop-color:gray;stop-opacity:.49803922"/></linearGradient><filter id="filter981" color-interpolation-filters="sRGB"><feGaussianBlur id="feGaussianBlur983" result="result1" stdDeviation="5"/><feComposite id="feComposite985" in="SourceGraphic" in2="result1" k1=".4" k2="0" k3=".8" k4="0" operator="arithmetic" result="result2"/></filter><radialGradient id="radialGradient967-8" cx="52.282" cy="54.772" r="16.183" fx="52.282" fy="54.772" gradientTransform="matrix(1,0,0,0.89743585,0,5.6176217)" gradientUnits="userSpaceOnUse" xlink:href="#linearGradient961-8"/><linearGradient id="linearGradient961-8"><stop id="stop963-2" offset="0" style="stop-color:red;stop-opacity:1"/><stop id="stop965-4" offset="1" style="stop-color:red;stop-opacity:0"/></linearGradient><filter id="filter981-5" color-interpolation-filters="sRGB"><feGaussianBlur id="feGaussianBlur983-5" result="result1" stdDeviation="5"/><feComposite id="feComposite985-1" in="SourceGraphic" in2="result1" k1=".4" k2="0" k3=".8" k4="0" operator="arithmetic" result="fbSourceGraphic"/><feColorMatrix id="feColorMatrix1034" in="fbSourceGraphic" result="fbSourceGraphicAlpha" values="0 0 0 -1 0 0 0 0 -1 0 0 0 0 -1 0 0 0 0 1 0"/><feGaussianBlur id="feGaussianBlur1036" in="fbSourceGraphic" result="result1" stdDeviation="5"/><feComposite id="feComposite1038" in="fbSourceGraphic" in2="result1" k1=".4" k2="0" k3=".8" k4="0" operator="arithmetic" result="result2"/></filter><radialGradient id="radialGradient1007-0" cx="52.282" cy="54.772" r="16.183" fx="52.282" fy="54.772" gradientTransform="matrix(1,0,0,0.89743585,0,5.6176217)" gradientUnits="userSpaceOnUse" xlink:href="#linearGradient961-8-9"/><linearGradient id="linearGradient961-8-9"><stop id="stop963-2-4" offset="0" style="stop-color:red;stop-opacity:1"/><stop id="stop965-4-8" offset="1" style="stop-color:red;stop-opacity:0"/></linearGradient><filter id="filter981-5-8" color-interpolation-filters="sRGB"><feGaussianBlur id="feGaussianBlur983-5-2" result="result1" stdDeviation="5"/><feComposite id="feComposite985-1-4" in="SourceGraphic" in2="result1" k1=".4" k2="0" k3=".8" k4="0" operator="arithmetic" result="fbSourceGraphic"/><feColorMatrix id="feColorMatrix1034-5" in="fbSourceGraphic" result="fbSourceGraphicAlpha" values="0 0 0 -1 0 0 0 0 -1 0 0 0 0 -1 0 0 0 0 1 0"/><feGaussianBlur id="feGaussianBlur1036-5" in="fbSourceGraphic" result="result1" stdDeviation="5"/><feComposite id="feComposite1038-1" in="fbSourceGraphic" in2="result1" k1=".4" k2="0" k3=".8" k4="0" operator="arithmetic" result="result2"/></filter><radialGradient id="radialGradient194" cx="52.282" cy="54.772" r="16.183" fx="52.282" fy="54.772" gradientTransform="matrix(1,0,0,0.89743585,0,5.6176217)" gradientUnits="userSpaceOnUse" xlink:href="#linearGradient961-8-9"/><radialGradient id="radialGradient967-7" cx="52.282" cy="54.772" r="16.183" fx="52.282" fy="54.772" gradientTransform="matrix(1,0,0,0.89743585,0,5.6176217)" gradientUnits="userSpaceOnUse" xlink:href="#linearGradient961-1"/><linearGradient id="linearGradient961-1"><stop id="stop963-1" offset="0" style="stop-color:red;stop-opacity:1"/><stop id="stop965-5" offset="1" style="stop-color:red;stop-opacity:0"/></linearGradient><filter id="filter981-2" color-interpolation-filters="sRGB"><feGaussianBlur id="feGaussianBlur983-7" result="result1" stdDeviation="5"/><feComposite id="feComposite985-6" in="SourceGraphic" in2="result1" k1=".4" k2="0" k3=".8" k4="0" operator="arithmetic" result="result2"/></filter><radialGradient id="radialGradient247" cx="52.282" cy="54.772" r="16.183" fx="52.282" fy="54.772" gradientTransform="matrix(1,0,0,0.89743585,0,5.6176217)" gradientUnits="userSpaceOnUse" xlink:href="#linearGradient961-1"/><radialGradient id="radialGradient846-7" cx="146.429" cy="216.786" r="74.286" fx="146.429" fy="216.786" gradientTransform="matrix(1,0,0,0.48687444,0,58.738289)" gradientUnits="userSpaceOnUse" xlink:href="#linearGradient839-7-4"/><linearGradient id="linearGradient839-7-4"><stop id="stop841-4-0" offset="0" style="stop-color:#000;stop-opacity:1"/><stop id="stop857-0-9" offset=".5" style="stop-color:#404040;stop-opacity:.74901962"/><stop id="stop849-9-4" offset="1" style="stop-color:gray;stop-opacity:.49803922"/></linearGradient><radialGradient id="radialGradient3735" cx="146.429" cy="216.786" r="74.286" fx="146.429" fy="216.786" gradientTransform="matrix(1,0,0,0.48687444,0,58.738289)" gradientUnits="userSpaceOnUse" xlink:href="#linearGradient839-7-4"/><radialGradient id="radialGradient846-8" cx="146.429" cy="216.786" r="74.286" fx="146.429" fy="216.786" gradientTransform="matrix(1,0,0,0.48687444,0,58.738289)" gradientUnits="userSpaceOnUse" xlink:href="#linearGradient839-7-2"/><linearGradient id="linearGradient839-7-2"><stop id="stop841-4-4" offset="0" style="stop-color:#000;stop-opacity:1"/><stop id="stop857-0-5" offset=".5" style="stop-color:#404040;stop-opacity:.74901962"/><stop id="stop849-9-5" offset="1" style="stop-color:gray;stop-opacity:.49803922"/></linearGradient><linearGradient id="linearGradient3841-2" x1="-92.616" x2="21.596" y1="207.261" y2="212.27" gradientUnits="userSpaceOnUse" xlink:href="#linearGradient3835-4"/><linearGradient id="linearGradient3835-4"><stop id="stop3837-5" offset="0" style="stop-color:#666;stop-opacity:1"/><stop id="stop3839-8" offset="1" style="stop-color:#666;stop-opacity:0"/></linearGradient><linearGradient id="linearGradient3841-1" x1="-92.616" x2="21.596" y1="207.261" y2="212.27" gradientUnits="userSpaceOnUse" xlink:href="#linearGradient3835-2"/><linearGradient id="linearGradient3835-2"><stop id="stop3837-1" offset="0" style="stop-color:#666;stop-opacity:1"/><stop id="stop3839-4" offset="1" style="stop-color:#666;stop-opacity:0"/></linearGradient><linearGradient id="linearGradient3977" x1="-300.811" x2="-300.881" y1="83.488" y2="90.773" gradientTransform="translate(121.44817,30.161159)" gradientUnits="userSpaceOnUse" xlink:href="#linearGradient3971"/><linearGradient id="linearGradient4007" x1="-166.877" x2="-166.81" y1="247.665" y2="254.088" gradientTransform="translate(81.216394,-87.259018)" gradientUnits="userSpaceOnUse" xlink:href="#linearGradient4001"/><radialGradient id="radialGradient1628" cx="57.884" cy="45.643" r="21.784" fx="57.884" fy="45.643" gradientTransform="matrix(1,0,0,0.8380952,0,7.3898456)" gradientUnits="userSpaceOnUse" xlink:href="#linearGradient1622"/><linearGradient id="linearGradient1622"><stop id="stop1624" offset="0" style="stop-color:#0f0;stop-opacity:1"/><stop id="stop1626" offset="1" style="stop-color:#0f0;stop-opacity:0"/></linearGradient><filter id="filter1630" color-interpolation-filters="sRGB"><feGaussianBlur id="feGaussianBlur1632" result="result1" stdDeviation="5"/><feComposite id="feComposite1634" in="SourceGraphic" in2="result1" k1=".4" k2="0" k3=".8" k4="0" operator="arithmetic" result="result2"/></filter><radialGradient id="radialGradient1656" cx="57.884" cy="45.643" r="21.784" fx="57.884" fy="45.643" gradientTransform="matrix(1,0,0,0.8380952,0,7.3898456)" gradientUnits="userSpaceOnUse" xlink:href="#linearGradient1622-8"/><linearGradient id="linearGradient1622-8"><stop id="stop1624-2" offset="0" style="stop-color:#0f0;stop-opacity:1"/><stop id="stop1626-4" offset="1" style="stop-color:#0f0;stop-opacity:0"/></linearGradient><filter id="filter1630-5" color-interpolation-filters="sRGB"><feGaussianBlur id="feGaussianBlur1632-5" result="result1" stdDeviation="5"/><feComposite id="feComposite1634-1" in="SourceGraphic" in2="result1" k1=".4" k2="0" k3=".8" k4="0" operator="arithmetic" result="result2"/></filter><radialGradient id="radialGradient2992" cx="57.884" cy="45.643" r="21.784" fx="57.884" fy="45.643" gradientTransform="matrix(1,0,0,0.8380952,0,7.3898456)" gradientUnits="userSpaceOnUse" xlink:href="#linearGradient1622-8"/><linearGradient id="linearGradient2974" x1="-300.811" x2="-300.881" y1="83.488" y2="90.773" gradientTransform="matrix(1.5,0,0,1.5,320.95451,-176.57971)" gradientUnits="userSpaceOnUse" xlink:href="#linearGradient3971"/><linearGradient id="linearGradient2968-7" x1="-166.877" x2="-166.81" y1="247.665" y2="254.088" gradientTransform="matrix(1.5,0,0,1.4999999,95.951448,-382.04247)" gradientUnits="userSpaceOnUse" xlink:href="#linearGradient4001-7"/><linearGradient id="linearGradient4001-7"><stop id="stop4003-1" offset="0" style="stop-color:#666;stop-opacity:1"/><stop id="stop4005-2" offset="1" style="stop-color:#666;stop-opacity:0"/></linearGradient><radialGradient id="radialGradient3795" cx="140.06" cy="122.558" r="74.286" fx="140.06" fy="122.558" gradientTransform="matrix(-1.044538,-0.03616902,0.00691375,-0.30054404,291.96598,195.00144)" gradientUnits="userSpaceOnUse" xlink:href="#linearGradient3789"/><linearGradient id="linearGradient3789"><stop id="stop3791" offset="0" style="stop-color:#333;stop-opacity:1"/><stop id="stop3793" offset="1" style="stop-color:#333;stop-opacity:0"/></linearGradient><radialGradient id="radialGradient3524" cx="197.925" cy="204.149" r="8.714" fx="197.925" fy="204.149" gradientTransform="matrix(1,0,0,1.0476191,0,-9.7214045)" gradientUnits="userSpaceOnUse" xlink:href="#linearGradient1094"/><linearGradient id="linearGradient3526" x1="-68.202" x2="31.55" y1="209.73" y2="219.503" gradientUnits="userSpaceOnUse" xlink:href="#linearGradient3739"/><radialGradient id="radialGradient3528" cx="145.607" cy="130.662" r="74.286" fx="145.607" fy="130.662" gradientTransform="matrix(-0.99920864,0.03436682,-0.00988005,-0.31975304,295.38761,183.28675)" gradientUnits="userSpaceOnUse" xlink:href="#linearGradient3787"/><radialGradient id="radialGradient3530" cx="146.429" cy="216.786" r="74.286" fx="146.429" fy="216.786" gradientTransform="matrix(1,0,0,0.48687444,0,58.738289)" gradientUnits="userSpaceOnUse" xlink:href="#linearGradient839-7"/><linearGradient id="linearGradient3532" x1="-300.811" x2="-300.881" y1="83.488" y2="90.773" gradientTransform="matrix(1.4997813,0.00430103,0.0165549,1.499091,516.74754,-927.6583)" gradientUnits="userSpaceOnUse" xlink:href="#linearGradient3971"/><linearGradient id="linearGradient3534" x1="-131.151" x2="-121.603" y1="26.016" y2="54.458" gradientTransform="translate(-764.37647,-219.56875)" gradientUnits="userSpaceOnUse" xlink:href="#linearGradient3971"/><linearGradient id="linearGradient3536" x1="-166.877" x2="-166.81" y1="247.665" y2="254.088" gradientTransform="matrix(1.5,0,0,1.4999999,-208.84737,-1068.1348)" gradientUnits="userSpaceOnUse" xlink:href="#linearGradient4001"/><linearGradient id="linearGradient3538" x1="-166.877" x2="-166.81" y1="247.665" y2="254.088" gradientTransform="matrix(1.5,0,0,1.4999999,-208.84736,-1068.1348)" gradientUnits="userSpaceOnUse" xlink:href="#linearGradient4001-7"/></defs><metadata id="metadata7"/><g id="layer2" transform="translate(-40.038894,-770.0168)" style="display:inline"><path id="rect141-4-4-8-2-4" d="m 242.45335,947.67248 c 0.81421,-0.56691 2.07984,-0.12986 2.85719,0.98657 l 24.00278,34.47378 c 0.29922,0.11606 0.52969,0.43216 0.53497,0.76833 l 41.21407,59.19334 c 0.77737,1.1165 0.74805,2.4551 -0.0662,3.022 l -1.58348,1.1026 c -0.8142,0.5669 -2.10421,0.1468 -2.88156,-0.9696 l -2.00025,-2.8729 -13.63038,-5.2901 0.20726,14.6361 2.00025,2.8729 c 0.77735,1.1164 0.74804,2.4551 -0.0662,3.022 l -1.58349,1.1025 c -0.81421,0.5669 -2.10422,0.1468 -2.88158,-0.9696 L 247.36265,999.557 c -0.29935,-0.11619 -0.4884,-0.42807 -0.51169,-0.73493 l -24.02605,-34.50718 c -0.77734,-1.11645 -0.72365,-2.47207 0.0905,-3.03897 l 1.58347,-1.10252 c 0.81422,-0.5669 2.07984,-0.12987 2.85718,0.98658 l 0.62799,0.90194 13.67806,5.30655 -0.23168,-14.61918 -0.65123,-0.93532 c -0.77736,-1.11645 -0.72368,-2.47206 0.0905,-3.03895 l 1.5835,-1.10254 z m -7.81724,23.94322 7.25666,10.42231 -0.12022,-7.65368 -7.13639,-2.76863 z m 13.44635,-9.31267 0.1214,7.60329 7.11197,2.78561 -7.23338,-10.3889 z m 0.23168,14.61917 0.19175,14.25016 c 0.001,0.10576 -0.0156,0.20544 -0.0543,0.28576 l 1.48854,2.13789 13.6548,5.27315 -0.23169,-14.61914 -1.48852,-2.13791 c -0.0798,0.003 -0.19981,-0.0145 -0.28681,-0.0483 L 248.3141,976.9222 z m 8.25473,26.1942 7.25665,10.4223 -0.12022,-7.6537 -7.13638,-2.7686 z m 13.44634,-9.31266 0.12139,7.60326 7.08874,2.7522 -7.21015,-10.35546 z m 0.23167,14.61916 0.22273,13.931 c 0.003,0.1867 -0.0901,0.3403 -0.20153,0.4379 l 0.32562,0.4676 13.67806,5.3066 -0.23167,-14.6191 -0.34887,-0.5011 c -0.13026,0.071 -0.28209,0.088 -0.45627,0.02 l -12.98807,-5.043 z m 6.9755,24.3569 7.25667,10.4224 -0.12023,-7.6537 -7.13638,-2.7687 z m 13.44635,-9.3126 0.097,7.6202 7.13637,2.7687 -7.23339,-10.3889 z" style="fill:#666;fill-opacity:1;fill-rule:evenodd;stroke:none;display:inline"/><path id="rect141-4-4-8-2-4-9" d="m 243.3971,947.71078 c -0.81421,-0.56691 -2.07984,-0.12986 -2.85719,0.98657 l -24.00278,34.47378 c -0.29922,0.11606 -0.52969,0.43216 -0.53497,0.76833 l -41.21407,59.19334 c -0.77737,1.1165 -0.74805,2.4551 0.0662,3.022 l 1.58348,1.1026 c 0.8142,0.5669 2.10421,0.1468 2.88156,-0.9696 l 2.00025,-2.8729 13.63038,-5.2901 -0.20726,14.6362 -2.00025,2.8728 c -0.77735,1.1164 -0.74804,2.4551 0.0662,3.022 l 1.58349,1.1025 c 0.81421,0.5669 2.10422,0.1469 2.88158,-0.9696 l 41.21408,-59.1934 c 0.29935,-0.11619 0.4884,-0.42807 0.51169,-0.73493 l 24.02605,-34.50718 c 0.77734,-1.11645 0.72365,-2.47207 -0.0905,-3.03897 l -1.58347,-1.10252 c -0.81422,-0.5669 -2.07984,-0.12987 -2.85718,0.98658 l -0.62799,0.90194 -13.67806,5.30655 0.23168,-14.61918 0.65123,-0.93532 c 0.77736,-1.11645 0.72368,-2.47206 -0.0905,-3.03895 l -1.5835,-1.10254 z m 7.81724,23.94322 -7.25666,10.42231 0.12022,-7.65368 7.13639,-2.76863 z m -13.44635,-9.31267 -0.1214,7.60329 -7.11197,2.78561 7.23338,-10.3889 z m -0.23168,14.61917 -0.19175,14.25016 c -0.001,0.10576 0.0156,0.20544 0.0543,0.28576 l -1.48854,2.13789 -13.6548,5.27315 0.23169,-14.61914 1.48852,-2.13791 c 0.0798,0.003 0.19981,-0.0145 0.28681,-0.0483 l 13.27381,-5.14161 z m -8.25473,26.1942 -7.25665,10.4223 0.12022,-7.6537 7.13638,-2.7686 z m -13.44634,-9.31266 -0.12139,7.60326 -7.08874,2.7522 7.21015,-10.35546 z m -0.23167,14.61916 -0.22273,13.931 c -0.003,0.1867 0.0901,0.3403 0.20153,0.4379 l -0.32562,0.4676 -13.67806,5.3066 0.23167,-14.6191 0.34887,-0.5011 c 0.13026,0.071 0.28209,0.088 0.45627,0.02 l 12.98807,-5.043 z m -6.9755,24.3569 -7.25667,10.4224 0.12023,-7.6537 7.13638,-2.7687 z m -13.44635,-9.3126 -0.097,7.6202 -7.13637,2.7687 7.23339,-10.3889 z" style="fill:#666;fill-opacity:1;fill-rule:evenodd;stroke:none;display:inline"/><path id="path282" d="m 206.639,204.14938 a 8.7136927,9.1286306 0 1 1 -17.42738,0 8.7136927,9.1286306 0 1 1 17.42738,0 z" transform="matrix(2.7134489,0,0,2.4637635,-294.2195,466.98408)" style="fill:#666;fill-opacity:1;fill-rule:evenodd;stroke:none"/><rect id="rect274" width="141.494" height="25.726" x="170.799" y="1034.291" ry="1.885" style="fill:#666;fill-opacity:1;fill-rule:evenodd;stroke:none"/><path id="path282-1" d="m 206.639,204.14938 a 8.7136927,9.1286306 0 1 1 -17.42738,0 8.7136927,9.1286306 0 1 1 17.42738,0 z" transform="matrix(2.0185413,0,0,1.7372691,-152.35451,620.19929)" style="fill:url(#radialGradient3524);fill-opacity:1;fill-rule:evenodd;stroke:none;display:inline"/></g><g id="layer1" transform="translate(-62.26224,-716.27727)" style="display:inline"><path id="path2965" d="m 94.190871,162.65561 a 93.153526,89.211617 0 0 1 -186.307053,0" transform="matrix(0.75379136,-1.1101423,1.1591951,0.78709842,-21.674564,715.67187)" style="fill:#999;fill-opacity:1;fill-rule:evenodd;stroke:none"/><path id="path2965-1" d="m 94.190871,162.65561 a 93.153526,89.211617 0 0 1 -186.307053,0" transform="matrix(0.75379136,-1.1101423,1.1591951,0.78709842,-21.686628,715.96908)" style="fill:url(#linearGradient3526);fill-opacity:1;fill-rule:evenodd;stroke:none;display:inline"/><path id="path25-1-1-1" d="m 220.71429,142.5 a 74.285713,28.224562 0 1 1 -148.57143,0 74.285713,28.224562 0 1 1 148.57143,0 z" transform="matrix(0.88558812,-1.537967,1.4212837,0.83457329,-145.89892,963.22589)" style="opacity:.75;fill:url(#radialGradient3528);fill-opacity:1;fill-rule:evenodd;stroke:none;display:inline"/><path id="path25-1-1" d="m 220.71429,142.5 a 74.285713,28.224562 0 1 1 -148.57143,0 74.285713,28.224562 0 1 1 148.57143,0 z" transform="matrix(0.96426536,-1.6582971,1.5475531,0.89987002,-197.54996,959.522)" style="fill:gray;fill-opacity:1;fill-rule:evenodd;stroke:none"/><path id="path25-1-7-4-1" d="m 220.71429,142.5 a 74.285713,28.382521 0 1 1 -148.57143,0 74.285713,28.382521 0 1 1 148.57143,0 z" transform="matrix(0.86276373,-1.4837395,1.1904255,0.69220769,-132.76974,965.54596)" style="fill:#333;fill-opacity:1;fill-rule:evenodd;stroke:none;display:inline"/><path id="path25-1-7-4" d="m 220.71429,142.5 a 74.285713,28.382521 0 1 1 -148.57143,0 74.285713,28.382521 0 1 1 148.57143,0 z" transform="matrix(0.86276373,-1.4837395,1.1904255,0.69220769,-132.64171,965.30917)" style="fill:url(#radialGradient3530);fill-opacity:1;fill-rule:evenodd;stroke:none"/><rect id="rect71" width="115.035" height="9.563" x="-947.812" y="-180.613" ry="2.93" transform="matrix(-0.32190147,-0.94677317,0.97984847,-0.19974229,0,0)" style="fill:#b3b3b3;fill-opacity:1;fill-rule:evenodd;stroke:none"/><rect id="rect71-4" width="119.774" height="7.723" x="30.077" y="-800.323" ry="2.366" transform="matrix(-0.9693926,0.24551575,-0.30635416,-0.95191761,0,0)" style="fill:#ccc;fill-opacity:1;fill-rule:evenodd;stroke:none"/><rect id="rect71-4-2" width="112.114" height="7.392" x="20.584" y="-799.631" ry="2.265" transform="matrix(-0.96868551,0.24829094,-0.29584244,-0.95523675,0,0)" style="fill:url(#linearGradient3532);fill-opacity:1;fill-rule:evenodd;stroke:none;display:inline"/><rect id="rect47" width="52.593" height="11.826" x="-672.149" y="486.346" ry="1.288" transform="matrix(0.50267466,-0.86447567,0.86447567,0.50267466,0,0)" style="fill:#999;fill-opacity:1;fill-rule:evenodd;stroke:none"/><path id="path45-7" d="m 154.35685,50.829876 a 18.049793,4.7717843 0 1 1 -36.09959,0 18.049793,4.7717843 0 1 1 36.09959,0 z" transform="matrix(0.73234495,-1.2594516,1.2967135,0.75401198,-60.80776,941.46238)" style="fill:#999;fill-opacity:1;fill-rule:evenodd;stroke:none"/><path id="path45" d="m 154.35685,50.829876 a 18.049793,4.7717843 0 1 1 -36.09959,0 18.049793,4.7717843 0 1 1 36.09959,0 z" transform="matrix(0.73234495,-1.2594516,1.2967135,0.75401198,-69.147616,936.61293)" style="fill:#ccc;fill-opacity:1;fill-rule:evenodd;stroke:none"/><rect id="rect71-4-8" width="96.28" height="6.208" x="-489.059" y="-692.4" ry="1.902" transform="matrix(-0.90887982,-0.41705811,0.3587208,-0.9334449,0,0)" style="fill:#ccc;fill-opacity:1;fill-rule:evenodd;stroke:none;display:inline"/><rect id="rect71-1" width="115.035" height="9.563" x="-948.187" y="-180.661" ry="2.93" transform="matrix(-0.32190147,-0.94677317,0.97984847,-0.19974229,0,0)" style="fill:url(#linearGradient3534);fill-opacity:1;fill-rule:evenodd;stroke:none;display:inline"/><rect id="rect71-4-8-2" width="96.28" height="6.208" x="-488.806" y="-692.72" ry="1.902" transform="matrix(-0.90887982,-0.41705812,0.35872081,-0.9334449,0,0)" style="fill:url(#linearGradient3536);fill-opacity:1;fill-rule:evenodd;stroke:none;display:inline"/><rect id="rect71-4-8-2-6" width="96.28" height="6.208" x="-533.56" y="-682.462" ry="1.902" transform="matrix(-0.90887982,-0.41705812,0.35872081,-0.9334449,0,0)" style="fill:url(#linearGradient3538);fill-opacity:1;fill-rule:evenodd;stroke:none;display:inline"/></g></svg>